<svg width="48" height="48" viewBox="0 0 48 48" fill="none" xmlns="http://www.w3.org/2000/svg">
<circle cx="24" cy="24" r="24" fill="#E22929"/>
<path d="M38.4562 23.765C34.5338 20.0475 29.3988 18 24 18C18.6012 18 13.4662 20.0474 9.53127 23.7762C9.1875 24.1187 9 24.5774 9 25.0687C9 25.5637 9.19752 26.0349 9.53127 26.3487L12.5013 29.3199C13.1875 30.0036 14.42 29.9836 15.0575 29.3487C15.9863 28.4887 17.0101 27.7774 18.0913 27.2362C18.7613 26.9124 19 26.1199 19 25.4874V22.205C20.5938 21.7762 22.4062 21.7375 24 21.7375C25.6887 21.7375 27.455 21.7762 29 22.2012V25.4874C29 26.3174 29.335 26.975 29.89 27.245C31.0199 27.81 32.0474 28.52 32.9387 29.3562C33.2787 29.6775 33.7412 29.8625 34.2062 29.8625C34.6975 29.8625 35.1562 29.675 35.4987 29.3325L38.4687 26.3625C38.8112 26.02 39 25.5612 39 25.0687C39 24.5774 38.8125 24.1187 38.4562 23.765Z" fill="white"/>
</svg>
